<?xml version="1.0" standalone="no"?>
<!DOCTYPE svg PUBLIC "-//W3C//DTD SVG 20010904//EN"
 "http://www.w3.org/TR/2001/REC-SVG-20010904/DTD/svg10.dtd">
<svg version="1.0" xmlns="http://www.w3.org/2000/svg"
 width="114.000000pt" height="126.000000pt" viewBox="0 0 114.000000 126.000000"
 preserveAspectRatio="xMidYMid meet">

<g transform="translate(0.000000,126.000000) scale(0.100000,-0.100000)"
fill="#000000" stroke="none">
<path d="M525 996 c-21 -8 -59 -29 -82 -46 -50 -34 -60 -36 -91 -14 -12 8 -22
11 -22 7 0 -22 101 -131 157 -169 60 -41 62 -42 141 -40 76 1 84 4 136 40 57
39 125 107 145 145 13 24 11 25 -24 9 -21 -10 -30 -8 -53 9 -15 11 -48 31 -72
43 -57 30 -176 37 -235 16z"/>
<path d="M326 784 c-11 -32 -16 -82 -16 -154 0 -122 -20 -256 -49 -324 -11
-25 -18 -46 -15 -46 3 0 25 16 49 35 l43 36 32 -55 c17 -31 36 -58 42 -62 5
-3 27 10 47 30 l37 37 63 -101 c34 -55 66 -98 70 -96 4 3 34 48 66 100 l59 96
26 -23 c58 -53 55 -53 94 7 20 31 40 56 45 56 4 0 25 -13 46 -30 21 -17 39
-30 40 -30 1 0 -10 33 -23 73 -19 56 -27 105 -33 222 -10 174 -15 215 -31 250
l-11 25 -24 -21 c-20 -20 -22 -29 -17 -74 6 -45 3 -54 -20 -83 -17 -19 -40
-34 -62 -38 -54 -10 -40 -46 34 -86 18 -9 32 -21 32 -25 0 -4 -21 -19 -47 -33
-63 -34 -76 -55 -126 -198 -23 -67 -46 -122 -52 -121 -5 1 -28 57 -51 125 -43
131 -64 163 -126 195 -20 10 -39 23 -42 28 -4 5 16 23 44 40 59 36 67 65 19
75 -17 3 -44 19 -61 36 -28 29 -30 34 -24 83 6 47 4 55 -17 75 l-25 23 -16
-47z"/>
<path d="M440 711 c0 -27 24 -43 61 -39 l33 3 -42 28 c-49 32 -52 33 -52 8z"/>
<path d="M759 702 c-44 -27 -44 -27 -16 -30 37 -4 53 2 66 27 17 31 -1 32 -50
3z"/>
<path d="M587 662 c-9 -10 -21 -43 -27 -73 -7 -35 -17 -59 -31 -68 -20 -14
-19 -15 16 -51 20 -20 46 -63 59 -94 l24 -58 16 50 c10 28 35 71 57 96 37 42
39 46 21 55 -13 7 -22 26 -27 58 -7 51 -21 83 -39 95 -20 13 -52 8 -69 -10z"/>
</g>
</svg>
